<svg width="12" height="12" viewBox="0 0 12 12" fill="none" xmlns="http://www.w3.org/2000/svg">
<path d="M4.96979 7.03108C3.8244 5.88569 3.56577 4.7403 3.50743 4.28139C3.49112 4.15451 3.53479 4.02726 3.62557 3.93711L4.55247 3.01062C4.68882 2.87436 4.71302 2.66199 4.61082 2.49855L3.13501 0.206938C3.02194 0.0259526 2.78979 -0.0393666 2.59894 0.0561084L0.229739 1.17191C0.0754051 1.24791 -0.0153722 1.41189 0.00215071 1.58302C0.12629 2.76234 0.640433 5.66141 3.48943 8.51061C6.33842 11.3598 9.23707 11.8737 10.417 11.9979C10.5882 12.0154 10.7521 11.9246 10.8281 11.7703L11.9439 9.4011C12.039 9.21066 11.9742 8.97913 11.7939 8.86586L9.50232 7.39046C9.33897 7.28815 9.12661 7.31218 8.99024 7.44839L8.06375 8.3753C7.97361 8.46608 7.84636 8.50974 7.71947 8.49344C7.26057 8.43509 6.11518 8.17647 4.96979 7.03108Z" fill="#FF3E3E"/>
<path d="M9.51804 6.41384C9.2895 6.41384 9.10424 6.22858 9.10424 6.00004C9.1023 4.28684 7.71396 2.8985 6.00076 2.89656C5.77222 2.89656 5.58696 2.7113 5.58696 2.48277C5.58696 2.25423 5.77222 2.06897 6.00076 2.06897C8.17084 2.07136 9.92944 3.82996 9.93183 6.00004C9.93183 6.22858 9.74657 6.41384 9.51804 6.41384Z" fill="#FF3E3E"/>
<path d="M11.587 6.41386C11.3585 6.41386 11.1732 6.2286 11.1732 6.00006C11.17 3.14471 8.85611 0.830787 6.00076 0.827595C5.77222 0.827595 5.58696 0.642331 5.58696 0.413797C5.58696 0.185263 5.77222 0 6.00076 0C9.31299 0.00364884 11.9972 2.68783 12.0008 6.00006C12.0008 6.10981 11.9572 6.21506 11.8796 6.29266C11.802 6.37026 11.6968 6.41386 11.587 6.41386Z" fill="#FF3E3E"/>
</svg>
