<svg width="12" height="9" viewBox="0 0 12 9" fill="none" xmlns="http://www.w3.org/2000/svg">
<path d="M7.9545 4.1865L12 6.744V1.521L7.9545 4.1865Z" fill="#FF3E3E"/>
<path d="M0 1.521V6.744L4.0455 4.1865L0 1.521Z" fill="#FF3E3E"/>
<path d="M11.25 0H0.750007C0.375757 0 0.0787567 0.279 0.0225067 0.63825L6.00001 4.5765L11.9775 0.63825C11.9213 0.279 11.6243 0 11.25 0Z" fill="#FF3E3E"/>
<path d="M7.2675 4.63948L6.20625 5.33848C6.14325 5.37973 6.072 5.39998 6 5.39998C5.928 5.39998 5.85675 5.37973 5.79375 5.33848L4.7325 4.63873L0.0240021 7.61698C0.0817521 7.97323 0.377252 8.24998 0.750002 8.24998H11.25C11.6228 8.24998 11.9183 7.97323 11.976 7.61698L7.2675 4.63948Z" fill="#FF3E3E"/>
</svg>
